<svg viewBox="0 0 49.8101 50" xmlns="http://www.w3.org/2000/svg" xmlns:xlink="http://www.w3.org/1999/xlink" width="49.810059" height="50.000000" fill="none" customFrame="#000000">
	<defs>
		<clipPath id="clipPath_0">
			<rect width="19.924021" height="20.000000" x="12.949219" y="15.000000" fill="rgb(255,255,255)" />
		</clipPath>
	</defs>
	<g id="button">
		<path id="Rectangle 4" d="M43.8101 0C47.1238 0 49.8101 2.68629 49.8101 6L49.8101 44C49.8101 47.3137 47.1238 50 43.8101 50L0 50L0 0L43.8101 0Z" fill="rgb(245,195,75)" fill-rule="evenodd" />
		<g id="search 1" clip-path="url(#clipPath_0)" customFrame="url(#clipPath_0)">
			<rect id="search 1" width="19.924021" height="20.000000" x="12.949219" y="15.000000" fill="rgb(255,255,255)" fill-opacity="0" />
			<g id="layer1">
				<path id="circle2017" d="M22.0309 16.6094C17.9144 16.6094 14.561 19.9755 14.561 24.1078C14.561 28.24 17.9144 31.6127 22.0309 31.6127C23.7892 31.6127 25.4063 30.9941 26.6844 29.9671L29.7959 33.0889C29.9529 33.24 30.1627 33.3233 30.3802 33.3211C30.5977 33.3189 30.8056 33.2312 30.9596 33.077C31.1135 32.9227 31.2011 32.714 31.2036 32.4957C31.2061 32.2774 31.1234 32.0667 30.9731 31.9089L27.8616 28.7856C28.8855 27.5006 29.5024 25.8748 29.5024 24.1078C29.5024 19.9755 26.1475 16.6094 22.0309 16.6094ZM22.0309 18.2761C25.2502 18.2761 27.8405 20.8762 27.8405 24.1078C27.8405 27.3393 25.2502 29.946 22.0309 29.946C18.8117 29.946 16.2214 27.3393 16.2214 24.1078C16.2214 20.8762 18.8117 18.2761 22.0309 18.2761Z" fill="rgb(68.3652,49.663,150.875)" fill-rule="nonzero" />
			</g>
		</g>
	</g>
</svg>
