<svg viewBox="0 0 28.5312 22.4404" xmlns="http://www.w3.org/2000/svg" xmlns:xlink="http://www.w3.org/1999/xlink" width="28.531250" height="22.440430" fill="none">
	<rect id="heart 1" width="28.531324" height="22.439999" x="0.000000" y="0.000000" fill="rgb(255,255,255)" fill-opacity="0" />
	<g id="Group">
		<path id="Vector" d="M18.9652 3.625C22.3294 3.625 25.0558 5.8024 25.0558 8.85076C25.0558 14.9475 16.7505 18.4314 13.9821 19.7378C11.2136 18.4314 2.9082 14.9475 2.9082 8.85076C2.9082 5.8024 5.67666 3.625 8.99879 3.625C11.0585 3.625 12.8746 4.49596 13.9821 5.36692C15.0893 4.49596 16.9055 3.625 18.9652 3.625ZM15.0163 17.2154C15.9918 16.7312 16.8723 16.2496 17.6962 15.734C20.9973 13.6698 22.841 11.414 22.841 8.85076C22.841 6.7953 21.139 5.36692 18.9652 5.36692C17.7736 5.36692 16.4846 5.86336 15.5478 6.59846L13.9821 7.82999L12.4162 6.59846C11.4793 5.86336 10.1903 5.36692 8.99879 5.36692C6.85048 5.36692 5.12297 6.80923 5.12297 8.85076C5.12297 11.4149 6.96786 13.6698 10.2667 15.734C11.0917 16.2496 11.9721 16.7312 12.9477 17.2146C13.2788 17.3792 13.6066 17.5368 13.9821 17.7128C14.3574 17.5368 14.6852 17.3792 15.0163 17.2154Z" fill="rgb(255,255,255)" fill-rule="nonzero" />
	</g>
</svg>
