<svg viewBox="0 0 21.3628 20" xmlns="http://www.w3.org/2000/svg" xmlns:xlink="http://www.w3.org/1999/xlink" width="21.362793" height="20.000000" fill="none">
	<rect id="profile 1" width="21.363007" height="20.000000" x="-0.000488" y="0.000000" fill="rgb(255,255,255)" fill-opacity="0" />
	<path id="Vector" d="M10.681 9.16634C11.5613 9.16634 12.4218 8.922 13.1537 8.46409C13.8856 8.00629 14.4561 7.35555 14.7929 6.59419C15.1297 5.83283 15.2179 4.99506 15.0461 4.1868C14.8744 3.37855 14.4505 2.63611 13.8281 2.0534C13.2057 1.47068 12.4127 1.07384 11.5494 0.913073C10.6859 0.752298 9.7911 0.834814 8.97788 1.15017C8.16462 1.46554 7.46953 1.9996 6.98048 2.6848C6.49144 3.37001 6.23042 4.17559 6.23042 4.99967C6.23184 6.10434 6.70119 7.16337 7.53554 7.94449C8.36989 8.72559 9.50109 9.165 10.681 9.16634ZM10.681 2.49967C11.2092 2.49967 11.7255 2.6463 12.1646 2.921C12.6038 3.19571 12.9461 3.58615 13.1481 4.04296C13.3503 4.49978 13.4031 5.00245 13.3001 5.4874C13.1971 5.97235 12.9428 6.41781 12.5693 6.76744C12.1959 7.11707 11.72 7.35517 11.202 7.45164C10.684 7.5481 10.1471 7.49859 9.65909 7.30937C9.17122 7.12015 8.75414 6.79972 8.46071 6.3886C8.16729 5.97748 8.01067 5.49413 8.01067 4.99967C8.01067 4.33663 8.29201 3.70075 8.7928 3.23191C9.29361 2.76306 9.97286 2.49967 10.681 2.49967ZM2.66992 18.333L2.66992 14.9997C2.67134 13.895 3.14069 12.836 3.97504 12.0548C4.80939 11.2738 5.94061 10.8343 7.12055 10.833L14.2415 10.833C15.4215 10.8343 16.5527 11.2738 17.3871 12.0548C18.2214 12.836 18.6907 13.895 18.6922 14.9997L18.6922 18.333C18.6922 18.554 18.5983 18.766 18.4314 18.9223C18.2646 19.0785 18.0381 19.1663 17.802 19.1663C17.566 19.1663 17.3395 19.0785 17.1726 18.9223C17.0057 18.766 16.9119 18.554 16.9119 18.333L16.9119 14.9997C16.9119 14.3367 16.6305 13.7008 16.1298 13.2319C15.629 12.7631 14.9497 12.4997 14.2415 12.4997L7.12055 12.4997C6.41232 12.4997 5.7331 12.7631 5.23231 13.2319C4.73151 13.7008 4.45017 14.3367 4.45017 14.9997L4.45017 18.333C4.45017 18.554 4.35639 18.766 4.18946 18.9223C4.02253 19.0785 3.79613 19.1663 3.56005 19.1663C3.32397 19.1663 3.09756 19.0785 2.93063 18.9223C2.76371 18.766 2.66992 18.554 2.66992 18.333Z" fill="rgb(255,255,255)" fill-rule="nonzero" />
</svg>
